<?xml version="1.0" standalone="no"?><svg xmlns="http://www.w3.org/2000/svg" viewBox="0 0 1440 320"><path fill="#ffffff" fill-opacity="1" d="M0,128L34.3,117.3C68.6,107,137,85,206,101.3C274.3,117,343,171,411,192C480,213,549,203,617,208C685.7,213,754,235,823,213.3C891.4,192,960,128,1029,128C1097.1,128,1166,192,1234,218.7C1302.9,245,1371,235,1406,229.3L1440,224L1440,320L1405.7,320C1371.4,320,1303,320,1234,320C1165.7,320,1097,320,1029,320C960,320,891,320,823,320C754.3,320,686,320,617,320C548.6,320,480,320,411,320C342.9,320,274,320,206,320C137.1,320,69,320,34,320L0,320Z"></path></svg>